<svg xmlns="http://www.w3.org/2000/svg" xmlns:xlink="http://www.w3.org/1999/xlink" width="2000" zoomAndPan="magnify" viewBox="0 0 1500 1499.999933" height="2000" preserveAspectRatio="xMidYMid meet" version="1.0"><defs><g/><clipPath id="7b17e83471"><rect x="0" width="1377" y="0" height="1287"/></clipPath></defs><g transform="matrix(1, 0, 0, 1, 57, 213)"><g clip-path="url(#7b17e83471)"><g fill="#9b001c" fill-opacity="1"><g transform="translate(4.927527, 1043.234657)"><g><path d="M 34.734375 0 C 25.203125 -17.03125 20.4375 -43.253906 20.4375 -78.671875 C 20.4375 -113.398438 24.863281 -151.367188 33.71875 -192.578125 C 42.570312 -233.785156 52.785156 -274.988281 64.359375 -316.1875 C 75.941406 -357.394531 86.160156 -395.023438 95.015625 -429.078125 C 103.867188 -463.128906 108.296875 -490.375 108.296875 -510.8125 C 108.296875 -531.25 103.867188 -558.660156 95.015625 -593.046875 C 86.160156 -627.441406 75.941406 -665.070312 64.359375 -705.9375 C 52.785156 -746.800781 42.570312 -787.835938 33.71875 -829.046875 C 24.863281 -870.253906 20.4375 -908.222656 20.4375 -942.953125 C 20.4375 -978.367188 25.203125 -1004.59375 34.734375 -1021.625 L 226.796875 -1021.625 C 236.335938 -1004.59375 241.109375 -978.367188 241.109375 -942.953125 C 241.109375 -908.222656 236.679688 -870.253906 227.828125 -829.046875 C 218.972656 -787.835938 208.753906 -746.800781 197.171875 -705.9375 C 185.597656 -665.070312 175.382812 -627.441406 166.53125 -593.046875 C 157.675781 -558.660156 153.25 -531.25 153.25 -510.8125 C 153.25 -490.375 157.675781 -463.128906 166.53125 -429.078125 C 175.382812 -395.023438 185.597656 -357.394531 197.171875 -316.1875 C 208.753906 -274.988281 218.972656 -233.785156 227.828125 -192.578125 C 236.679688 -151.367188 241.109375 -113.398438 241.109375 -78.671875 C 241.109375 -43.253906 236.335938 -17.03125 226.796875 0 Z M 34.734375 0 "/></g></g></g><g fill="#9b001c" fill-opacity="1"><g transform="translate(194.940712, 1043.234657)"><g><path d="M 228.84375 0 L 30.65625 0 L 30.65625 -1021.625 C 52.445312 -1008.6875 73.726562 -998.640625 94.5 -991.484375 C 115.269531 -984.335938 140.300781 -980.765625 169.59375 -980.765625 C 195.46875 -980.765625 217.429688 -983.828125 235.484375 -989.953125 C 253.535156 -996.085938 270.390625 -1003.238281 286.046875 -1011.40625 C 301.710938 -1019.582031 317.890625 -1026.734375 334.578125 -1032.859375 C 351.265625 -1038.992188 371.1875 -1042.0625 394.34375 -1042.0625 C 439.300781 -1042.0625 475.910156 -1029.457031 504.171875 -1004.25 C 532.429688 -979.050781 553.03125 -943.460938 565.96875 -897.484375 C 578.914062 -851.515625 585.390625 -797.539062 585.390625 -735.5625 L 585.390625 0 L 386.171875 0 L 386.171875 -584.375 C 386.171875 -618.425781 390.425781 -648.050781 398.9375 -673.25 C 407.457031 -698.445312 418.015625 -720.75 430.609375 -740.15625 C 443.210938 -759.570312 455.644531 -777.789062 467.90625 -794.8125 C 480.164062 -811.84375 490.550781 -829.550781 499.0625 -847.9375 C 507.570312 -866.332031 511.828125 -887.109375 511.828125 -910.265625 C 511.828125 -921.847656 509.613281 -932.914062 505.1875 -943.46875 C 500.757812 -954.03125 492.757812 -959.3125 481.1875 -959.3125 C 468.925781 -959.3125 457.347656 -954.539062 446.453125 -945 C 435.554688 -935.46875 424.316406 -923.71875 412.734375 -909.75 C 401.160156 -895.789062 388.5625 -881.828125 374.9375 -867.859375 C 361.3125 -853.898438 345.644531 -842.15625 327.9375 -832.625 C 310.226562 -823.09375 289.796875 -818.328125 266.640625 -818.328125 C 225.097656 -818.328125 187.8125 -829.5625 154.78125 -852.03125 C 121.75 -874.507812 93.648438 -906.519531 70.484375 -948.0625 C 70.484375 -914.007812 75.757812 -881.144531 86.3125 -849.46875 C 96.875 -817.800781 110.15625 -786.132812 126.15625 -754.46875 C 142.164062 -722.800781 158.003906 -689.9375 173.671875 -655.875 C 189.335938 -621.820312 202.445312 -585.382812 213 -546.5625 C 223.5625 -507.75 228.84375 -465.179688 228.84375 -418.859375 Z M 228.84375 0 "/></g></g></g><g fill="#9b001c" fill-opacity="1"><g transform="translate(739.446848, 1043.234657)"><g><path d="M 320.796875 20.4375 C 228.160156 20.4375 154.941406 -22.8125 101.140625 -109.3125 C 47.335938 -195.8125 20.4375 -329.644531 20.4375 -510.8125 C 20.4375 -691.976562 47.335938 -825.8125 101.140625 -912.3125 C 154.941406 -998.8125 228.160156 -1042.0625 320.796875 -1042.0625 C 414.097656 -1042.0625 487.476562 -998.8125 540.9375 -912.3125 C 594.40625 -825.8125 621.140625 -691.976562 621.140625 -510.8125 C 621.140625 -329.644531 594.40625 -195.8125 540.9375 -109.3125 C 487.476562 -22.8125 414.097656 20.4375 320.796875 20.4375 Z M 163.453125 -159.375 C 163.453125 -138.257812 168.726562 -117.992188 179.28125 -98.578125 C 189.84375 -79.171875 205.507812 -63 226.28125 -50.0625 C 247.0625 -37.125 272.4375 -30.65625 302.40625 -30.65625 C 340.539062 -30.65625 372.207031 -39.847656 397.40625 -58.234375 C 422.613281 -76.617188 441.6875 -99.773438 454.625 -127.703125 C 467.5625 -155.628906 474.03125 -183.894531 474.03125 -212.5 C 474.03125 -249.28125 471.988281 -281.117188 467.90625 -308.015625 C 463.820312 -334.921875 458.882812 -359.441406 453.09375 -381.578125 C 447.300781 -403.710938 441.507812 -425.675781 435.71875 -447.46875 C 429.9375 -469.257812 425 -493.609375 420.90625 -520.515625 C 416.820312 -547.421875 414.78125 -578.921875 414.78125 -615.015625 C 414.78125 -646.347656 418.523438 -672.910156 426.015625 -694.703125 C 433.503906 -716.492188 442.015625 -735.90625 451.546875 -752.9375 C 461.085938 -769.96875 469.601562 -786.484375 477.09375 -802.484375 C 484.59375 -818.492188 488.34375 -836.375 488.34375 -856.125 C 488.34375 -877.238281 483.0625 -897.5 472.5 -916.90625 C 461.945312 -936.320312 446.28125 -952.5 425.5 -965.4375 C 404.726562 -978.375 379.019531 -984.84375 348.375 -984.84375 C 310.914062 -984.84375 279.582031 -975.644531 254.375 -957.25 C 229.175781 -938.863281 210.109375 -915.878906 197.171875 -888.296875 C 184.234375 -860.710938 177.765625 -832.28125 177.765625 -803 C 177.765625 -766.21875 179.804688 -734.375 183.890625 -707.46875 C 187.972656 -680.570312 192.910156 -656.054688 198.703125 -633.921875 C 204.492188 -611.785156 210.28125 -589.816406 216.0625 -568.015625 C 221.851562 -546.222656 226.789062 -521.875 230.875 -494.96875 C 234.96875 -468.070312 237.015625 -436.578125 237.015625 -400.484375 C 237.015625 -369.148438 233.269531 -342.582031 225.78125 -320.78125 C 218.289062 -298.988281 209.773438 -279.578125 200.234375 -262.546875 C 190.703125 -245.523438 182.1875 -229.007812 174.6875 -213 C 167.195312 -197 163.453125 -179.125 163.453125 -159.375 Z M 163.453125 -159.375 "/></g></g></g></g></g></svg>