<svg xmlns="http://www.w3.org/2000/svg" xmlns:xlink="http://www.w3.org/1999/xlink" width="2000" zoomAndPan="magnify" viewBox="0 0 1500 1499.999933" height="2000" preserveAspectRatio="xMidYMid meet" version="1.0"><defs><g/><clipPath id="ab66fe3e35"><path d="M 1032 538 L 1412.878906 538 L 1412.878906 818 L 1032 818 Z M 1032 538 " clip-rule="nonzero"/></clipPath><clipPath id="7647e0d9cb"><rect x="0" width="381" y="0" height="280"/></clipPath><clipPath id="d57e0116db"><rect x="0" width="1413" y="0" height="993"/></clipPath></defs><g transform="matrix(1, 0, 0, 1, 48, 356)"><g clip-path="url(#d57e0116db)"><g fill="#9b001c" fill-opacity="1"><g transform="translate(1.784673, 786.213566)"><g><path d="M 25.90625 0 C 18.789062 -12.695312 15.234375 -32.253906 15.234375 -58.671875 C 15.234375 -84.578125 18.535156 -112.894531 25.140625 -143.625 C 31.742188 -174.351562 39.363281 -205.082031 48 -235.8125 C 56.632812 -266.539062 64.253906 -294.601562 70.859375 -320 C 77.460938 -345.40625 80.765625 -365.726562 80.765625 -380.96875 C 80.765625 -396.195312 77.460938 -416.632812 70.859375 -442.28125 C 64.253906 -467.9375 56.632812 -496.003906 48 -526.484375 C 39.363281 -556.960938 31.742188 -587.566406 25.140625 -618.296875 C 18.535156 -649.023438 15.234375 -677.34375 15.234375 -703.25 C 15.234375 -729.664062 18.789062 -749.222656 25.90625 -761.921875 L 169.140625 -761.921875 C 176.253906 -749.222656 179.8125 -729.664062 179.8125 -703.25 C 179.8125 -677.34375 176.507812 -649.023438 169.90625 -618.296875 C 163.300781 -587.566406 155.679688 -556.960938 147.046875 -526.484375 C 138.410156 -496.003906 130.789062 -467.9375 124.1875 -442.28125 C 117.582031 -416.632812 114.28125 -396.195312 114.28125 -380.96875 C 114.28125 -365.726562 117.582031 -345.40625 124.1875 -320 C 130.789062 -294.601562 138.410156 -266.539062 147.046875 -235.8125 C 155.679688 -205.082031 163.300781 -174.351562 169.90625 -143.625 C 176.507812 -112.894531 179.8125 -84.578125 179.8125 -58.671875 C 179.8125 -32.253906 176.253906 -12.695312 169.140625 0 Z M 25.90625 0 "/></g></g></g><g fill="#9b001c" fill-opacity="1"><g transform="translate(143.500883, 786.213566)"><g><path d="M 170.671875 0 L 22.859375 0 L 22.859375 -761.921875 C 39.109375 -752.273438 54.976562 -744.78125 70.46875 -739.4375 C 85.96875 -734.101562 104.640625 -731.4375 126.484375 -731.4375 C 145.785156 -731.4375 162.164062 -733.722656 175.625 -738.296875 C 189.082031 -742.867188 201.648438 -748.203125 213.328125 -754.296875 C 225.015625 -760.398438 237.082031 -765.734375 249.53125 -770.296875 C 261.976562 -774.867188 276.835938 -777.15625 294.109375 -777.15625 C 327.628906 -777.15625 354.925781 -767.757812 376 -748.96875 C 397.082031 -730.175781 412.445312 -703.632812 422.09375 -669.34375 C 431.75 -635.0625 436.578125 -594.804688 436.578125 -548.578125 L 436.578125 0 L 288 0 L 288 -435.8125 C 288 -461.21875 291.171875 -483.316406 297.515625 -502.109375 C 303.867188 -520.898438 311.742188 -537.535156 321.140625 -552.015625 C 330.546875 -566.492188 339.816406 -580.082031 348.953125 -592.78125 C 358.097656 -605.476562 365.84375 -618.679688 372.1875 -632.390625 C 378.539062 -646.109375 381.71875 -661.601562 381.71875 -678.875 C 381.71875 -687.507812 380.066406 -695.757812 376.765625 -703.625 C 373.460938 -711.5 367.492188 -715.4375 358.859375 -715.4375 C 349.722656 -715.4375 341.085938 -711.878906 332.953125 -704.765625 C 324.828125 -697.660156 316.445312 -688.898438 307.8125 -678.484375 C 299.175781 -668.078125 289.78125 -657.664062 279.625 -647.25 C 269.46875 -636.84375 257.785156 -628.082031 244.578125 -620.96875 C 231.367188 -613.851562 216.128906 -610.296875 198.859375 -610.296875 C 167.878906 -610.296875 140.070312 -618.675781 115.4375 -635.4375 C 90.800781 -652.207031 69.847656 -676.082031 52.578125 -707.0625 C 52.578125 -681.664062 56.507812 -657.15625 64.375 -633.53125 C 72.25 -609.914062 82.15625 -586.296875 94.09375 -562.671875 C 106.03125 -539.054688 117.835938 -514.550781 129.515625 -489.15625 C 141.203125 -463.757812 150.984375 -436.582031 158.859375 -407.625 C 166.734375 -378.675781 170.671875 -346.929688 170.671875 -312.390625 Z M 170.671875 0 "/></g></g></g><g fill="#9b001c" fill-opacity="1"><g transform="translate(549.601821, 786.213566)"><g><path d="M 239.25 15.234375 C 170.164062 15.234375 115.554688 -17.019531 75.421875 -81.53125 C 35.296875 -146.039062 15.234375 -245.851562 15.234375 -380.96875 C 15.234375 -516.070312 35.296875 -615.878906 75.421875 -680.390625 C 115.554688 -744.898438 170.164062 -777.15625 239.25 -777.15625 C 308.832031 -777.15625 363.5625 -744.898438 403.4375 -680.390625 C 443.3125 -615.878906 463.25 -516.070312 463.25 -380.96875 C 463.25 -245.851562 443.3125 -146.039062 403.4375 -81.53125 C 363.5625 -17.019531 308.832031 15.234375 239.25 15.234375 Z M 121.90625 -118.859375 C 121.90625 -103.109375 125.84375 -87.992188 133.71875 -73.515625 C 141.59375 -59.046875 153.273438 -46.984375 168.765625 -37.328125 C 184.253906 -27.679688 203.175781 -22.859375 225.53125 -22.859375 C 253.976562 -22.859375 277.597656 -29.710938 296.390625 -43.421875 C 315.179688 -57.140625 329.398438 -74.410156 339.046875 -95.234375 C 348.703125 -116.066406 353.53125 -137.148438 353.53125 -158.484375 C 353.53125 -185.910156 352.003906 -209.65625 348.953125 -229.71875 C 345.910156 -249.78125 342.226562 -268.066406 337.90625 -284.578125 C 333.59375 -301.085938 329.273438 -317.46875 324.953125 -333.71875 C 320.640625 -349.976562 316.957031 -368.140625 313.90625 -388.203125 C 310.863281 -408.265625 309.34375 -431.753906 309.34375 -458.671875 C 309.34375 -482.035156 312.132812 -501.84375 317.71875 -518.09375 C 323.3125 -534.351562 329.660156 -548.832031 336.765625 -561.53125 C 343.878906 -574.226562 350.226562 -586.546875 355.8125 -598.484375 C 361.40625 -610.421875 364.203125 -623.753906 364.203125 -638.484375 C 364.203125 -654.234375 360.265625 -669.347656 352.390625 -683.828125 C 344.515625 -698.304688 332.832031 -710.367188 317.34375 -720.015625 C 301.851562 -729.671875 282.675781 -734.5 259.8125 -734.5 C 231.875 -734.5 208.507812 -727.640625 189.71875 -713.921875 C 170.925781 -700.203125 156.703125 -683.054688 147.046875 -662.484375 C 137.398438 -641.921875 132.578125 -620.71875 132.578125 -598.875 C 132.578125 -571.445312 134.097656 -547.695312 137.140625 -527.625 C 140.191406 -507.5625 143.875 -489.273438 148.1875 -472.765625 C 152.507812 -456.265625 156.828125 -439.882812 161.140625 -423.625 C 165.460938 -407.375 169.144531 -389.21875 172.1875 -369.15625 C 175.238281 -349.09375 176.765625 -325.597656 176.765625 -298.671875 C 176.765625 -275.304688 173.96875 -255.492188 168.375 -239.234375 C 162.789062 -222.984375 156.441406 -208.507812 149.328125 -195.8125 C 142.222656 -183.113281 135.875 -170.796875 130.28125 -158.859375 C 124.695312 -146.921875 121.90625 -133.585938 121.90625 -118.859375 Z M 121.90625 -118.859375 "/></g></g></g><g clip-path="url(#ab66fe3e35)"><g transform="matrix(1, 0, 0, 1, 1032, 538)"><g clip-path="url(#7647e0d9cb)"><g fill="#49011b" fill-opacity="1"><g transform="translate(0.0597059, 124.620399)"><g><path d="M 10.5625 -97.328125 C 12.476562 -99.203125 14.988281 -100.140625 18.09375 -100.140625 C 21.207031 -100.140625 23.722656 -99.203125 25.640625 -97.328125 C 27.566406 -95.453125 28.53125 -93.050781 28.53125 -90.125 C 28.53125 -87.101562 27.566406 -84.675781 25.640625 -82.84375 C 23.722656 -81.019531 21.207031 -80.109375 18.09375 -80.109375 C 14.988281 -80.109375 12.476562 -81.019531 10.5625 -82.84375 C 8.644531 -84.675781 7.6875 -87.101562 7.6875 -90.125 C 7.6875 -93.050781 8.644531 -95.453125 10.5625 -97.328125 Z M 27.578125 0 L 8.640625 0 L 8.640625 -72.96875 L 27.578125 -72.96875 Z M 27.578125 0 "/></g></g></g><g fill="#49011b" fill-opacity="1"><g transform="translate(30.50402, 124.620399)"><g><path d="M 76.671875 -54.453125 C 77.046875 -51.160156 77.234375 -46.726562 77.234375 -41.15625 L 77.234375 0 L 58.296875 0 L 58.296875 -38.546875 C 58.296875 -42.847656 58.207031 -46.234375 58.03125 -48.703125 C 57.382812 -57.296875 52.71875 -61.59375 44.03125 -61.59375 C 39.09375 -61.59375 35.113281 -59.28125 32.09375 -54.65625 C 29.082031 -50.039062 27.578125 -42.929688 27.578125 -33.328125 L 27.578125 0 L 8.640625 0 L 8.640625 -72.96875 L 27.578125 -72.96875 L 27.578125 -61.171875 L 33.203125 -69.828125 C 37.953125 -73.203125 43.800781 -74.890625 50.75 -74.890625 C 58.4375 -74.890625 64.492188 -73.109375 68.921875 -69.546875 C 73.359375 -65.984375 75.941406 -60.953125 76.671875 -54.453125 Z M 76.671875 -54.453125 "/></g></g></g><g fill="#49011b" fill-opacity="1"><g transform="translate(109.635276, 124.620399)"><g><path d="M 36.34375 -78.875 L 19.484375 -95.0625 L 36.484375 -95.0625 L 47.046875 -78.875 Z M 74.890625 -38 C 74.890625 -35.34375 74.800781 -33.191406 74.625 -31.546875 L 22.765625 -31.546875 C 23.867188 -18.109375 29.492188 -11.390625 39.640625 -11.390625 C 43.753906 -11.390625 47.160156 -12.484375 49.859375 -14.671875 C 52.554688 -16.867188 54.226562 -19.890625 54.875 -23.734375 L 73.796875 -23.734375 C 71.972656 -15.410156 67.972656 -9.050781 61.796875 -4.65625 C 55.617188 -0.269531 48.097656 1.921875 39.234375 1.921875 C 28.710938 1.921875 20.160156 -1.34375 13.578125 -7.875 C 6.992188 -14.414062 3.703125 -23.863281 3.703125 -36.21875 C 3.703125 -47.550781 7.109375 -56.828125 13.921875 -64.046875 C 20.734375 -71.273438 29.671875 -74.890625 40.734375 -74.890625 C 51.441406 -74.890625 59.8125 -71.367188 65.84375 -64.328125 C 71.875 -57.285156 74.890625 -48.507812 74.890625 -38 Z M 39.921875 -61.59375 C 30.492188 -61.59375 24.957031 -55.691406 23.3125 -43.890625 L 55.421875 -43.890625 C 54.140625 -55.691406 48.972656 -61.59375 39.921875 -61.59375 Z M 39.921875 -61.59375 "/></g></g></g><g fill="#49011b" fill-opacity="1"><g transform="translate(182.869257, 124.620399)"><g><path d="M 34.703125 -74.890625 C 43.117188 -74.890625 49.835938 -72.785156 54.859375 -68.578125 C 59.890625 -64.378906 62.816406 -58.800781 63.640625 -51.84375 L 44.71875 -51.84375 C 43.4375 -58.882812 39.6875 -62.40625 33.46875 -62.40625 C 30.726562 -62.40625 28.601562 -61.695312 27.09375 -60.28125 C 25.582031 -58.863281 24.828125 -56.96875 24.828125 -54.59375 C 24.828125 -51.851562 26.0625 -49.660156 28.53125 -48.015625 C 31 -46.367188 35.296875 -44.765625 41.421875 -43.203125 C 49.378906 -41.191406 55.320312 -38.398438 59.25 -34.828125 C 63.1875 -31.265625 65.15625 -26.285156 65.15625 -19.890625 C 65.15625 -12.847656 62.34375 -7.453125 56.71875 -3.703125 C 51.09375 0.046875 43.890625 1.921875 35.109375 1.921875 C 25.972656 1.921875 18.566406 -0.0859375 12.890625 -4.109375 C 7.222656 -8.140625 3.882812 -14.175781 2.875 -22.21875 L 21.8125 -22.21875 C 22.539062 -18.375 24.113281 -15.46875 26.53125 -13.5 C 28.957031 -11.539062 31.910156 -10.5625 35.390625 -10.5625 C 38.585938 -10.5625 41.171875 -11.242188 43.140625 -12.609375 C 45.109375 -13.984375 46.09375 -15.953125 46.09375 -18.515625 C 46.09375 -21.347656 44.765625 -23.65625 42.109375 -25.4375 C 39.460938 -27.226562 34.984375 -28.898438 28.671875 -30.453125 C 21.265625 -32.285156 15.59375 -34.914062 11.65625 -38.34375 C 7.726562 -41.769531 5.765625 -46.457031 5.765625 -52.40625 C 5.765625 -59.351562 8.390625 -64.835938 13.640625 -68.859375 C 18.898438 -72.878906 25.921875 -74.890625 34.703125 -74.890625 Z M 34.703125 -74.890625 "/></g></g></g><g fill="#49011b" fill-opacity="1"><g transform="translate(0.0597059, 237.810893)"><g><path d="M 13.71875 -64.265625 C 20.394531 -71.347656 29.675781 -74.890625 41.5625 -74.890625 C 53.445312 -74.890625 62.726562 -71.347656 69.40625 -64.265625 C 76.082031 -57.179688 79.421875 -47.921875 79.421875 -36.484375 C 79.421875 -25.148438 76.082031 -15.914062 69.40625 -8.78125 C 62.726562 -1.644531 53.445312 1.921875 41.5625 1.921875 C 29.675781 1.921875 20.394531 -1.644531 13.71875 -8.78125 C 7.039062 -15.914062 3.703125 -25.148438 3.703125 -36.484375 C 3.703125 -47.921875 7.039062 -57.179688 13.71875 -64.265625 Z M 28.1875 -18.03125 C 31.4375 -13.601562 35.894531 -11.390625 41.5625 -11.390625 C 47.226562 -11.390625 51.6875 -13.601562 54.9375 -18.03125 C 58.1875 -22.46875 59.8125 -28.617188 59.8125 -36.484375 C 59.8125 -44.347656 58.1875 -50.5 54.9375 -54.9375 C 51.6875 -59.375 47.226562 -61.59375 41.5625 -61.59375 C 35.894531 -61.59375 31.4375 -59.375 28.1875 -54.9375 C 24.9375 -50.5 23.3125 -44.347656 23.3125 -36.484375 C 23.3125 -28.617188 24.9375 -22.46875 28.1875 -18.03125 Z M 28.1875 -18.03125 "/></g></g></g><g fill="#49011b" fill-opacity="1"><g transform="translate(77.13377, 237.810893)"><g><path d="M 76 -72.96875 L 76 0 L 57.0625 0 L 57.0625 -12.34375 L 51.4375 -3.015625 C 46.5 0.273438 40.644531 1.921875 33.875 1.921875 C 26.65625 1.921875 20.78125 0.160156 16.25 -3.359375 C 11.726562 -6.878906 9.007812 -11.289062 8.09375 -16.59375 C 7.632812 -19.707031 7.40625 -24.144531 7.40625 -29.90625 L 7.40625 -72.96875 L 26.34375 -72.96875 L 26.34375 -33.875 C 26.34375 -30.5 26.523438 -27.164062 26.890625 -23.875 C 27.890625 -15.632812 32.597656 -11.515625 41.015625 -11.515625 C 45.953125 -11.515625 49.859375 -13.570312 52.734375 -17.6875 C 55.617188 -21.8125 57.0625 -27.847656 57.0625 -35.796875 L 57.0625 -72.96875 Z M 76 -72.96875 "/></g></g></g><g fill="#49011b" fill-opacity="1"><g transform="translate(155.85365, 237.810893)"><g><path d="M 51.03125 0 L 49.65625 -10.703125 L 46.09375 -2.875 C 41.332031 0.320312 35.296875 1.921875 27.984375 1.921875 C 21.304688 1.921875 15.726562 0.046875 11.25 -3.703125 C 6.769531 -7.453125 4.53125 -12.664062 4.53125 -19.34375 C 4.53125 -27.382812 7.9375 -33.578125 14.75 -37.921875 C 21.5625 -42.265625 31.550781 -44.4375 44.71875 -44.4375 L 49.375 -44.4375 L 49.375 -45.953125 C 49.375 -48.878906 49.285156 -51.164062 49.109375 -52.8125 C 48.460938 -58.664062 44.710938 -61.59375 37.859375 -61.59375 C 30.265625 -61.59375 26.195312 -57.476562 25.65625 -49.25 L 7.265625 -49.109375 C 7.546875 -57.148438 10.585938 -63.457031 16.390625 -68.03125 C 22.203125 -72.601562 29.585938 -74.890625 38.546875 -74.890625 C 56.742188 -74.890625 66.484375 -67.710938 67.765625 -53.359375 C 68.035156 -49.878906 68.171875 -46.128906 68.171875 -42.109375 L 68.171875 -18.515625 C 68.171875 -12.941406 68.628906 -6.769531 69.546875 0 Z M 35.25 -11.390625 C 39.269531 -11.390625 42.628906 -12.757812 45.328125 -15.5 C 48.023438 -18.238281 49.375 -22.035156 49.375 -26.890625 L 49.375 -32.78125 C 32.550781 -33.96875 24.140625 -29.988281 24.140625 -20.84375 C 24.140625 -14.539062 27.84375 -11.390625 35.25 -11.390625 Z M 35.25 -11.390625 "/></g></g></g><g fill="#49011b" fill-opacity="1"><g transform="translate(226.893208, 237.810893)"><g><path d="M 17.6875 -100.140625 C 24.550781 -100.140625 27.984375 -96.800781 27.984375 -90.125 C 27.984375 -83.445312 24.550781 -80.109375 17.6875 -80.109375 C 10.738281 -80.109375 7.265625 -83.445312 7.265625 -90.125 C 7.265625 -96.800781 10.738281 -100.140625 17.6875 -100.140625 Z M 27.015625 -72.96875 L 27.015625 1.640625 C 27.015625 4.203125 26.925781 7.128906 26.75 10.421875 C 26.289062 16.460938 24.140625 21.035156 20.296875 24.140625 C 16.460938 27.253906 10.519531 28.8125 2.46875 28.8125 C -0.09375 28.8125 -2.425781 28.671875 -4.53125 28.390625 L -4.53125 14.953125 C -0.414062 15.316406 2.597656 14.992188 4.515625 13.984375 C 6.441406 12.984375 7.585938 11.066406 7.953125 8.234375 C 8.140625 5.671875 8.234375 3.566406 8.234375 1.921875 L 8.234375 -72.96875 Z M 27.015625 -72.96875 "/></g></g></g><g fill="#49011b" fill-opacity="1"><g transform="translate(256.514614, 237.810893)"><g><path d="M 10.5625 -97.328125 C 12.476562 -99.203125 14.988281 -100.140625 18.09375 -100.140625 C 21.207031 -100.140625 23.722656 -99.203125 25.640625 -97.328125 C 27.566406 -95.453125 28.53125 -93.050781 28.53125 -90.125 C 28.53125 -87.101562 27.566406 -84.675781 25.640625 -82.84375 C 23.722656 -81.019531 21.207031 -80.109375 18.09375 -80.109375 C 14.988281 -80.109375 12.476562 -81.019531 10.5625 -82.84375 C 8.644531 -84.675781 7.6875 -87.101562 7.6875 -90.125 C 7.6875 -93.050781 8.644531 -95.453125 10.5625 -97.328125 Z M 27.578125 0 L 8.640625 0 L 8.640625 -72.96875 L 27.578125 -72.96875 Z M 27.578125 0 "/></g></g></g><g fill="#49011b" fill-opacity="1"><g transform="translate(286.958928, 237.810893)"><g><path d="M 51.984375 -74.890625 C 62.046875 -74.890625 69.976562 -71.457031 75.78125 -64.59375 C 81.59375 -57.738281 84.5 -48.828125 84.5 -37.859375 C 84.5 -25.242188 81.160156 -15.457031 74.484375 -8.5 C 67.804688 -1.550781 59.484375 1.921875 49.515625 1.921875 C 42.015625 1.921875 36.300781 0.550781 32.375 -2.1875 L 27.578125 -9.734375 L 27.578125 0 L 8.640625 0 L 8.640625 -100.828125 L 27.578125 -100.828125 L 27.578125 -61.859375 L 33.0625 -69.828125 C 37.269531 -73.203125 43.578125 -74.890625 51.984375 -74.890625 Z M 45.8125 -11.390625 C 51.476562 -11.390625 56.070312 -13.5625 59.59375 -17.90625 C 63.113281 -22.25 64.875 -28.488281 64.875 -36.625 C 64.875 -44.125 63.207031 -50.160156 59.875 -54.734375 C 56.539062 -59.304688 52.082031 -61.59375 46.5 -61.59375 C 40.832031 -61.59375 36.257812 -59.648438 32.78125 -55.765625 C 29.3125 -51.878906 27.578125 -45.726562 27.578125 -37.3125 L 27.578125 -33.875 C 27.578125 -26.195312 29.359375 -20.53125 32.921875 -16.875 C 36.484375 -13.21875 40.78125 -11.390625 45.8125 -11.390625 Z M 45.8125 -11.390625 "/></g></g></g></g></g></g></g></g></svg>